<svg width="560" height="360" viewBox="0 0 560 360" fill="none" xmlns="http://www.w3.org/2000/svg">
  <defs>
    <linearGradient id="bg" x1="0" y1="0" x2="1" y2="1">
      <stop offset="0" stop-color="#0f172a"/>
      <stop offset="1" stop-color="#1e293b"/>
    </linearGradient>
    <linearGradient id="lineA" x1="0" y1="1" x2="1" y2="0">
      <stop offset="0" stop-color="#38bdf8" stop-opacity="0.2"/>
      <stop offset="1" stop-color="#38bdf8" stop-opacity="0.8"/>
    </linearGradient>
    <linearGradient id="lineB" x1="0" y1="1" x2="1" y2="0">
      <stop offset="0" stop-color="#f472b6" stop-opacity="0.2"/>
      <stop offset="1" stop-color="#f472b6" stop-opacity="0.9"/>
    </linearGradient>
  </defs>
  <rect width="560" height="360" rx="26" fill="url(#bg)"/>
  <rect x="32" y="44" width="496" height="32" rx="16" fill="#0b1324" opacity="0.6"/>
  <circle cx="56" cy="60" r="6" fill="#ef4444"/>
  <circle cx="76" cy="60" r="6" fill="#facc15"/>
  <circle cx="96" cy="60" r="6" fill="#22c55e"/>
  <rect x="56" y="104" width="112" height="184" rx="18" fill="#0b1324" opacity="0.55"/>
  <rect x="192" y="104" width="272" height="184" rx="18" fill="#0b1324" opacity="0.55"/>
  <polyline points="210,252 250,200 290,220 330,180 370,214 410,150 450,186" stroke="url(#lineA)" stroke-width="6" fill="none" stroke-linecap="round" stroke-linejoin="round"/>
  <polyline points="210,270 250,238 290,256 330,216 370,230 410,198 450,212" stroke="url(#lineB)" stroke-width="6" fill="none" stroke-linecap="round" stroke-linejoin="round" opacity="0.7"/>
  <rect x="72" y="124" width="80" height="20" rx="10" fill="#38bdf8" opacity="0.65"/>
  <rect x="72" y="156" width="64" height="20" rx="10" fill="#f97316" opacity="0.65"/>
  <rect x="72" y="188" width="96" height="20" rx="10" fill="#a855f7" opacity="0.65"/>
  <rect x="72" y="246" width="80" height="28" rx="14" fill="#38bdf8" opacity="0.85"/>
  <rect x="192" y="320" width="272" height="10" rx="5" fill="#0b1324" opacity="0.4"/>
  <text x="72" y="262" fill="#0f172a" font-family="'Inter', sans-serif" font-size="12" font-weight="600">PASSED</text>
</svg>
